<?xml version="1.0" encoding="UTF-8"?>
<svg id="Calque_1" data-name="Calque 1" xmlns="http://www.w3.org/2000/svg" viewBox="0 0 500 500">
  <defs>
    <style>
      .cls-1 {
        fill: #00514f;
      }

      .cls-2 {
        fill: #fffcf8;
      }
    </style>
  </defs>
  <path class="cls-1" d="m250.03,489.52c-76.22,0-239.55-163.33-239.55-239.55C10.48,168.31,173.81,10.48,250.03,10.48c81.66,0,239.49,157.83,239.49,239.49,0,76.22-157.83,239.55-239.49,239.55Z"/>
  <path class="cls-2" d="m292.18,360.64v-74.7c0-4.91,2.13-9.66,6-12.68.22-.17.45-.34.68-.51,2.37-1.56,5.2-2.47,8.25-2.47h37.8v-15.93c-6.55.37-40.67-1.07-46.26,1.2-12.77,3.58-22.21,15.29-22.49,29.14,0,0,0,45.48,0,45.48.07,5.24,1.44,10.15,3.84,14.48h-3.83s0,0,0,0c-3.65,0-7.74-1.43-10.09-4.61-1.15-1.56-1.88-3.46-1.88-5.41,0-.62.02-124.51,0-126.06h-.01c0-8.25,6.71-14.96,14.97-14.96h80.6v-15.93h-80.6c-17.06,0-30.89,13.83-30.89,30.89v97.82h-72.96c-8.31,0-15.07-6.76-15.07-15.06v-43.77c-.26-8.28,6.56-15.59,14.95-15.54,0,0,38.82,0,38.82,0v-15.65h-39.14c-5.3.05-10.26,1.42-14.63,3.85v-49.76c0-8.32,6.74-15.06,15.06-15.06h73.01v-16.03h-73c-17.17,0-31.09,13.92-31.09,31.09v120.87c0,17.16,13.91,31.08,31.08,31.08h72.96c.02,2.85-.02,9.24,0,12.01-.05,14.43,11.82,26.22,26.62,26.22h17.28Z"/>
</svg>