<?xml version="1.0" encoding="UTF-8"?>
<svg id="Calque_1" data-name="Calque 1" xmlns="http://www.w3.org/2000/svg" viewBox="0 0 800 400">
  <defs>
    <style>
      .cls-1 {
        fill: #012624;
      }

      .cls-2 {
        fill: #fffcf8;
      }
    </style>
  </defs>
  <path class="cls-1" d="m92.2,210.96c-.04.32-.07.91-.07,1.25v23.62c0,4.39,3.5,7.97,7.86,8.11,10.99-8.69,21.55-22.39,21.55-30.27,0-2.84-1.19-6.25-3.19-9.85h-18.15c-4.08,0-7.51,3.14-8,7.14Z"/>
  <path class="cls-1" d="m83.49,235.83v-60.4c-.06,0-.13-.01-.2-.01-12.17,0-38.26,25.21-38.26,38.25,0,12.17,26.09,38.26,38.26,38.26,2.26,0,4.88-.8,7.68-2.15-4.51-3.01-7.48-8.14-7.48-13.95Z"/>
  <path class="cls-1" d="m92.33,197.34c2.3-1.24,4.92-1.94,7.7-1.96h12.47c-5.8-7.07-13.5-13.74-20.36-17.3v19.37c.05-.03.13-.07.2-.11Z"/>
  <path class="cls-1" d="m716.72,175.42c-4.69,0-11.45,3.75-17.99,9.1,12.47,3.64,19.26,14.23,19.26,24.92,0,1.65,0,3.3-.3,4.65l-5.7,5.55h-32.03c3.5,8.08,12.64,18.42,21.6,25.19,4.46-.99,8.2-2.71,11.34-4.8l-1.2,9.45c-.44.27-.89.52-1.36.77,2.35,1.07,4.53,1.68,6.38,1.68,13.04,0,38.25-26.09,38.25-38.26,0-13.04-25.21-38.25-38.25-38.25Z"/>
  <path class="cls-1" d="m708.39,209.6c0-8.29-6.01-17.24-17.21-18.06-6.48,6.79-11.61,14.45-12.55,20.31h29.61c.15-.6.15-1.5.15-2.24Z"/>
  <g>
    <rect class="cls-2" x="361.98" y="184.7" width="8.53" height="67.93"/>
    <path class="cls-2" d="m270.08,159.61c-2.1,0-6.6,4.35-6.6,6.6,0,2.1,4.5,6.6,6.6,6.6,2.25,0,6.6-4.5,6.6-6.6,0-2.25-4.35-6.6-6.6-6.6Z"/>
    <path class="cls-2" d="m305.67,243.95c-1.94,0-4.65-1.88-5.12-4.45-.06-.78-.1-1.62-.11-2.51v-66.4c0-4.45,3.62-8.1,8.08-8.1h43.5v-8.65h-43.5c-9.19,0-16.67,7.56-16.67,16.75v67.92c0,2.91.89,5.63,2.42,7.89,2.54,3.76,6.84,6.25,11.7,6.25h9.57v-41.18c0-.96.27-1.91.65-2.77,1.29-2.75,4.19-4.86,7.4-4.8,0,0,20.4,0,20.4,0v-8.59h-20.4c-1.81,0-3.49.31-5.14.82-6.6,2.14-11.4,8.28-11.55,15.56v24.54c.03,2.75.7,5.26,1.92,7.54.04.07.08.14.11.2h-3.27Z"/>
    <path class="cls-2" d="m223.39,183.2c-12,0-19.05,4.95-21.45,10.65h-.15v-47.99h-8.53v106.77h8.53v-44.84c0-9.45,7.5-16.34,19.34-16.34s18.74,6.9,18.74,16.34v44.84h8.58v-45.74c0-14.84-10.08-23.7-25.08-23.7Z"/>
    <rect class="cls-2" x="265.7" y="184.7" width="8.53" height="67.93"/>
    <path class="cls-2" d="m178.3,203.83l2.09-8.45h-18.86l-.28-30.23-8.73,4.95.28,25.28h-40.31s-12.47,0-12.47,0c-2.78.02-5.4.72-7.7,1.96-.07.04-.14.08-.2.11v-26.85c0-4.48,3.65-8.13,8.13-8.13h39.4v-8.65h-39.4c-9.25,0-16.78,7.53-16.78,16.78v65.23c0,5.81,2.98,10.94,7.48,13.95,2.66,1.78,5.86,2.82,9.3,2.82h39.4v-8.64h-39.4c-.09,0-.18-.01-.27-.01-4.36-.15-7.86-3.72-7.86-8.11v-23.62c0-.34.03-.92.07-1.25.49-4,3.92-7.14,8-7.14h52.32v31.51c0,11.84,7.68,17.99,18.03,17.99,2.85,0,5.7-.3,7.5-1.35l1.05-7.8c-1.8.9-4.2,1.35-6.9,1.35-6.6,0-10.95-3-10.95-10.95v-30.76h17.06Z"/>
    <path class="cls-2" d="m627.3,192.35c6.75,0,13.35,1.95,18.59,5.55l1.95-8.85c-5.25-3-12.45-5.25-20.99-5.25-19.49,0-35.84,13.8-35.84,34.94s16.5,34.79,35.84,34.79c6.9,0,13.35-1.2,18-3.6l1.2-9.15c-5.85,3.3-11.39,4.5-18.44,4.5-15.15,0-26.99-10.95-26.99-26.39s11.7-26.54,26.69-26.54Z"/>
    <path class="cls-2" d="m679.95,219.65h32.03l5.7-5.55c.3-1.35.3-3,.3-4.65,0-10.69-6.79-21.28-19.26-24.92-2.92-.85-6.15-1.32-9.68-1.32-16.2,0-32.84,13.65-32.84,35.54s16.34,35.39,35.84,35.39c8.02,0,13.81-1.48,18.29-3.87.47-.25.92-.5,1.36-.77h0s0,0,0,0l1.2-9.45c-3.13,2.09-6.88,3.81-11.33,4.8,0,0,0,0,0,0,0,0,0,0,0,0-2.57.57-5.38.9-8.46.9-17.24,0-27.44-13.5-26.99-26.09h13.85Zm9.54-28.19c.58,0,1.13.04,1.69.08,11.2.83,17.21,9.77,17.21,18.06,0,.75,0,1.65-.15,2.24h-41.54c1.65-10.65,11.55-20.39,22.79-20.39Z"/>
    <path class="cls-2" d="m366.2,159.61c-2.1,0-6.6,4.35-6.6,6.6,0,2.1,4.5,6.6,6.6,6.6,2.25,0,6.6-4.5,6.6-6.6,0-2.25-4.35-6.6-6.6-6.6Z"/>
    <path class="cls-2" d="m553.36,183.2c-12.9,0-19.79,5.4-22.04,11.7h-.15v-10.2h-8.85v67.93h9.45v-44.84c0-9.45,7.5-16.34,19.34-16.34s18.75,6.9,18.75,16.34v44.84h9.45v-45.74c0-14.84-11.1-23.7-25.95-23.7Z"/>
    <path class="cls-2" d="m419.02,183.2c-12.9,0-19.8,5.4-22.04,11.7h-.15v-10.2h-8.67v67.93h9.27v-44.84c0-9.45,7.5-16.34,19.34-16.34s18.75,6.9,18.75,16.34v44.84h9.45v-45.74c0-14.84-11.1-23.7-25.95-23.7Z"/>
    <path class="cls-2" d="m482.28,183.22c-8.1,0-15.15,1.8-20.4,5.4l1.95,7.95c4.35-3,11.25-5.1,17.99-5.1,10.2,0,16.05,5.1,16.05,13.49v5.71l-17.85,1.65c-11.55,1.05-22.04,7.95-22.04,21.15,0,11.1,8.69,19.94,21.74,19.94,8.69,0,12.44-1.76,19.35-8.04v7.26h8.4v-46.77c0-14.55-10.65-22.65-25.19-22.65Zm15.6,44.55c0,10.95-8.7,17.55-17.4,17.55-7.8,0-13.35-5.1-13.35-11.84,0-7.35,5.25-12.45,14.7-13.35l16.05-1.5v9.15Z"/>
  </g>
</svg>
